<svg width="950" height="774" viewBox="0 0 950 774" fill="none" xmlns="http://www.w3.org/2000/svg">
<path d="M486.649 163.606C667.081 71.6996 865.108 98.8078 928.955 224.154C992.802 349.499 898.291 525.617 717.859 617.523C537.427 709.429 339.4 682.32 275.553 556.975C211.706 431.629 306.217 255.512 486.649 163.606Z" stroke="#445371" stroke-opacity="0.3"/>
<path d="M459.113 109.547C639.545 17.6409 837.572 44.7492 901.419 170.095C965.266 295.441 870.755 471.558 690.324 563.464C509.892 655.37 311.865 628.262 248.018 502.916C184.171 377.57 278.681 201.453 459.113 109.547Z" stroke="#445371" stroke-opacity="0.3"/>
<path d="M431.577 55.4901C612.009 -36.4159 810.036 -9.30773 873.883 116.038C937.73 241.384 843.219 417.501 662.787 509.407C482.355 601.313 284.328 574.205 220.481 448.859C156.634 323.513 251.145 147.396 431.577 55.4901Z" stroke="#445371" stroke-opacity="0.3"/>
<path d="M32 401.789L33.5047 431.718L62.4338 423.901L34.4347 434.581L50.8091 459.678L32 436.349L13.1909 459.678L29.5653 434.581L1.56619 423.901L30.4953 431.718L32 401.789Z" fill="#445371" fill-opacity="0.3"/>
<path d="M699.912 722.76L684.838 739.43L704.326 750.626L683.813 741.441L679.187 763.435L681.584 741.088L659.237 743.485L681.231 738.859L672.046 718.346L683.242 737.834L699.912 722.76Z" fill="#445371" fill-opacity="0.3"/>
</svg>
