<svg width="891" height="681" viewBox="0 0 891 681" fill="none" xmlns="http://www.w3.org/2000/svg">
<path d="M614.424 172.6C789.786 273.845 874.927 454.678 804.592 576.502C734.257 698.325 535.081 715.007 359.719 613.762C184.357 512.517 99.2157 331.684 169.551 209.86C239.885 88.0366 439.062 71.3545 614.424 172.6Z" stroke="#FBB2BF"/>
<path d="M644.758 120.06C820.119 221.305 905.261 402.138 834.926 523.962C764.591 645.786 565.414 662.468 390.053 561.222C214.691 459.977 129.549 279.144 199.884 157.321C270.219 35.4969 469.396 18.8149 644.758 120.06Z" stroke="#FBB2BF"/>
<path d="M675.09 67.521C850.451 168.766 935.593 349.599 865.258 471.423C794.923 593.246 595.746 609.928 420.384 508.683C245.023 407.438 159.881 226.605 230.216 104.781C300.551 -17.0422 499.728 -33.7243 675.09 67.521Z" stroke="#FBB2BF"/>
<path d="M72.7634 457L74.2681 486.929L103.197 479.112L75.1981 489.792L91.5725 514.889L72.7634 491.56L53.9542 514.889L70.3287 489.792L42.3295 479.112L71.2586 486.929L72.7634 457Z" fill="#FBB2BF"/>
<path d="M40.6751 560.971L25.6009 577.641L45.0887 588.837L24.5762 579.652L19.9501 601.646L22.3469 579.299L0 581.696L21.9938 577.07L12.8087 556.557L24.0049 576.045L40.6751 560.971Z" fill="#FBB2BF"/>
</svg>
