
    <svg width="1076" height="1126" viewBox="0 0 1076 1126" fill="none" xmlns="http://www.w3.org/2000/svg">
      <g clip-path="url(#clip0_2101_11)">
      <path fill-rule="evenodd" clip-rule="evenodd" d="M384.762 1014.68C357.473 1014.66 334.825 1021.49 319.54 1039.19C256.843 1096.3 177.521 1117.95 91.0744 1125.04C154.465 1098.36 176.253 1046.79 152.459 994.928C133.811 954.281 78.7796 929.028 39.7216 866.636C2.28631 801.626 9.16925 756.807 1.65686 699.229C-1.89516 603.882 -0.425853 508.536 12.9103 413.188C28.4967 272.913 95.3005 177.987 187.113 122.068C284.795 66.3517 380.625 49.3048 470.741 29.7794C537.03 16.0224 595.522 8.34598 658.877 2.89313C839.03 -9.48724 971.85 14.5478 1028.21 140.42C1090.79 295.639 1081.39 460.12 1058.51 617.366C1034.44 769.094 960.721 878.576 838.907 945.171C690.402 1003.24 538.496 1022.97 384.762 1014.68Z" fill="#FF255F"/>
      <path fill-rule="evenodd" clip-rule="evenodd" d="M233.346 301.623C221.177 304.901 208.506 312.44 202.624 319.905C195.958 328.37 192.619 346.433 195.646 357.659C200.667 376.282 214.145 385.474 246.858 392.581C276.347 398.99 282.989 403.971 272.911 412.119C268.906 415.358 265.253 416.026 255.807 415.243C245.401 414.381 242.795 413.161 236.326 406.111L228.857 397.971L207.909 401.707C183.936 405.983 182.945 407.366 193.454 421.851C212.29 447.817 249.264 457.737 285.531 446.553C323.375 434.881 337.533 396.91 313.326 372.004C304.865 363.297 285.825 355.714 264.45 352.535C250.978 350.532 242.311 345.872 242.311 340.637C242.311 329.626 268.273 328.823 276.852 339.565L281.658 345.585L300.727 340.555C311.216 337.788 319.797 334.631 319.797 333.539C319.797 329.157 312.93 318.712 306.492 313.302C291.701 300.874 256.812 295.303 233.346 301.623ZM341.937 374.724V448.938H366.29H390.643L391.165 434.016C391.453 425.808 391.508 413.87 391.287 407.488C390.957 397.931 391.55 395.862 394.639 395.771C438.888 394.469 455.703 389.712 465.947 375.592C473.735 364.857 476.117 351.014 472.657 336.614C469.487 323.414 460.604 313.26 446.562 306.785C436.951 302.355 431.901 301.866 388.982 301.218L341.937 300.509V374.724ZM492.483 374.881V448.938H550.044H607.606V431.253V413.567H573.29H538.975V401.409V389.25H566.649H594.323V372.67V356.09H566.649H538.975V346.142V336.194H573.29H607.606V318.508V300.823H550.044H492.483V374.881ZM659.631 305.728C658.834 308.503 648.884 339.62 637.523 374.881C626.159 410.141 616.194 441.269 615.377 444.053C613.9 449.089 614 449.113 633.174 448.474L652.455 447.833L657.16 434.569L661.865 421.305H682.877H703.887L707.402 434.569L710.918 447.833L734.534 448.461C757.853 449.08 758.152 449.025 758.094 444.039C758.063 441.263 747.618 408.151 734.884 370.459L711.731 301.928L686.406 301.307C661.696 300.701 661.048 300.807 659.631 305.728ZM773.649 374.881V449.093L796.342 448.463L819.034 447.833L819.672 429.865C820.27 413.101 820.806 411.326 827.695 403.367L835.081 394.836L848.661 421.888L862.239 448.938H887.683C901.675 448.938 913.126 448.412 913.126 447.769C913.126 445.839 900.345 420.936 882.988 389.049C873.993 372.524 866.634 357.582 866.634 355.844C866.634 354.105 874.604 341.842 884.345 328.593C894.086 315.345 902.056 303.677 902.056 302.664C902.056 301.652 892.713 300.823 881.294 300.823H860.53L848.227 319.061C841.459 329.091 832.404 342.227 828.103 348.248L820.281 359.196L819.657 330.563L819.034 301.928L796.342 301.298L773.649 300.668V374.881ZM422.999 338.617C424.686 340.014 426.065 344.459 426.065 348.498C426.065 358.661 419.603 362.722 403.432 362.722H390.643V348.032V333.344L405.288 334.71C413.342 335.46 421.312 337.217 422.999 338.617ZM688.321 367.026C690.459 374.865 692.707 382.576 693.315 384.159C694.137 386.294 691.496 387.039 683.116 387.039C676.454 387.039 671.809 386.053 671.809 384.638C671.809 378.902 681.537 349.467 682.914 351.036C683.751 351.993 686.184 359.187 688.321 367.026Z" fill="white"/>
      <path fill-rule="evenodd" clip-rule="evenodd" d="M180.768 511.767C183.586 489.933 202.006 473.478 224.019 473.131L872.35 462.908C897 462.52 917.228 482.322 917.363 506.974L918.416 699.443C918.551 724.037 898.633 744.035 874.039 744L201.257 743.031C174.557 742.993 153.954 719.526 157.371 693.045L180.768 511.767ZM444.994 569.935C434.748 531.456 409.348 504.203 373.39 493.112C342.579 483.611 304.606 486.239 277.844 499.729C230.69 523.498 207.486 582.994 222.487 641.665C231.5 676.912 249.962 699.7 281.904 715.005C299.799 723.58 301.646 723.989 326.238 724.842C356.066 725.877 373.498 722.351 392.857 711.373C416.059 698.212 434.751 673.333 443.686 643.715C448.785 626.818 449.493 586.836 444.994 569.935ZM324.272 542.043C305.786 549.409 295.77 578.183 298.287 616.7C301.019 658.531 317.249 679.046 342.171 672.175C358.793 667.592 365.387 654.058 367.521 620.131C369.268 592.33 366.279 568.028 359.469 554.702C352.88 541.802 338.16 536.51 324.272 542.043ZM552.664 571.078C553.299 643.533 553.751 651.921 557.386 658.575C562.921 668.7 574.003 673.053 589.37 671.134C604.206 669.283 613.61 661.619 616.526 649.005C617.651 644.141 618.594 606.588 618.623 565.552L618.676 490.941H647.457H676.237V576.903C676.237 676.627 676.009 678.117 657.756 698.06C651.718 704.656 642.841 712.06 638.027 714.512C609.616 728.985 545.389 728.748 516.517 714.065C499.738 705.532 492.744 698.71 485.303 683.624L478.092 669.007L477.402 579.974L476.713 490.941H514.336H551.962L552.664 571.078ZM866.634 518.502V546.062L841.727 546.688L816.821 547.314L816.243 635.188L815.663 723.063H780.267H744.869V634.635V546.208H720.516H696.163V518.575V490.941H781.398H866.634V518.502Z" fill="white"/>
      </g>
      <defs>
      <clipPath id="clip0_2101_11">
      <rect width="1075.9" height="1125.04" fill="white"/>
      </clipPath>
      </defs>
    </svg>